<?xml version="1.0" encoding="UTF-8" standalone="no"?><!DOCTYPE svg PUBLIC "-//W3C//DTD SVG 1.1//EN" "http://www.w3.org/Graphics/SVG/1.1/DTD/svg11.dtd"><svg width="100%" height="100%" viewBox="0 0 800 800" version="1.1" xmlns="http://www.w3.org/2000/svg" xmlns:xlink="http://www.w3.org/1999/xlink" xml:space="preserve" xmlns:serif="http://www.serif.com/" style="fill-rule:evenodd;clip-rule:evenodd;stroke-linecap:round;stroke-linejoin:round;stroke-miterlimit:1.5;"><rect id="White-on-Black--plain-" serif:id="White on Black (plain)" x="0" y="0" width="800" height="800" style="fill:none;"/><path d="M57.554,457.596c28.097,165.877 171.784,287.272 340.024,287.272c190.338,0 344.868,-154.53 344.868,-344.868c0,-19.3 -1.62,-38.567 -4.843,-57.596l-20.402,3.456c3.03,17.887 4.553,35.998 4.553,54.14c0,178.918 -145.258,324.176 -324.176,324.176c-158.145,0 -293.211,-114.111 -319.623,-270.036l-20.401,3.456Z" style="fill:#e4e4e4;stroke:#e4e4e4;stroke-width:17.19px;"/><path d="M593.219,115.995c-57.542,-39.638 -125.767,-60.863 -195.641,-60.863c-107.295,-0 -208.478,49.939 -273.739,135.105l16.424,12.586c61.346,-80.056 156.458,-126.999 257.315,-126.999c65.681,-0 129.813,19.951 183.903,57.212l11.738,-17.041Z" style="fill:#e4e4e4;stroke:#e4e4e4;stroke-width:17.19px;"/><path d="M596.429,201.149c-52.739,-52.738 -124.267,-82.366 -198.851,-82.366c-74.583,-0 -146.112,29.628 -198.85,82.366l13.919,13.92c49.047,-49.047 115.569,-76.601 184.931,-76.601c69.363,0 135.885,27.554 184.931,76.601l13.92,-13.92Z" style="fill:#e4e4e4;stroke:#e4e4e4;stroke-width:17.19px;"/><path d="M122.077,343.592c-3.801,18.562 -5.716,37.461 -5.716,56.408c0,155.208 126.009,281.217 281.217,281.217c155.208,0 281.217,-126.009 281.217,-281.217c0,-28.19 -4.238,-56.22 -12.574,-83.15l-18.805,5.82c7.752,25.045 11.694,51.113 11.694,77.33c0,144.343 -117.188,261.532 -261.532,261.532c-144.343,-0 -261.532,-117.189 -261.532,-261.532c0,-17.621 1.781,-35.197 5.316,-52.46l-19.285,-3.948Z" style="fill:#e4e4e4;stroke:#e4e4e4;stroke-width:17.19px;"/><path d="M242.039,555.539c30.482,30.482 69.249,51.336 111.484,59.97l3.524,-17.241c-38.856,-7.943 -74.521,-27.128 -102.565,-55.172l-12.443,12.443Z" style="fill:#e4e4e4;stroke:#e4e4e4;stroke-width:17.19px;"/><path d="M553.118,555.539c-30.483,30.482 -69.249,51.336 -111.484,59.97l-3.525,-17.241c38.856,-7.943 74.522,-27.128 102.565,-55.172l12.444,12.443Z" style="fill:#e4e4e4;stroke:#e4e4e4;stroke-width:17.19px;"/><rect x="155.027" y="259.498" width="485.102" height="19.264" style="fill:#e4e4e4;stroke:#e4e4e4;stroke-width:17.19px;"/><path d="M256.377,302.115l-0,18.693c-0,9.499 7.711,17.21 17.209,17.21l83.648,-0c9.498,-0 17.21,-7.711 17.21,-17.21l-0,-18.693l-118.067,-0Z" style="fill:#e4e4e4;stroke:#e4e4e4;stroke-width:6.09px;"/><path d="M536.357,302.115l-0,18.693c-0,9.499 -7.712,17.21 -17.21,17.21l-83.648,-0c-9.498,-0 -17.21,-7.711 -17.21,-17.21l0,-18.693l118.068,-0Z" style="fill:#e4e4e4;stroke:#e4e4e4;stroke-width:6.09px;"/><path d="M339.161,358.039l-47.501,-0l-0,168.439c14.96,13.48 30.846,22.632 47.501,28.199l-0,-196.638Z" style="fill:#e4e4e4;stroke:#e4e4e4;stroke-width:11.18px;"/><path d="M453.573,358.039l47.5,-0l0,168.439c-14.96,13.48 -30.846,22.632 -47.5,28.199l-0,-196.638Z" style="fill:#e4e4e4;stroke:#e4e4e4;stroke-width:11.18px;"/><circle cx="81.986" cy="267.652" r="23.555" style="fill:#e4e4e4;"/><circle cx="716.173" cy="267.652" r="23.555" style="fill:#e4e4e4;"/><circle cx="397.578" cy="611.435" r="23.555" style="fill:#e4e4e4;"/><path d="M397.578,163.289l146.974,69.317l-68.577,-0l-78.397,-34.772l-78.397,34.772l-68.577,-0l146.974,-69.317c0,0 0,0 0,0Z" style="fill:#e4e4e4;stroke:#e4e4e4;stroke-width:6.02px;"/><path d="M397.578,220.845l27.492,11.761l-54.983,-0l27.491,-11.761Z" style="fill:#e4e4e4;stroke:#e4e4e4;stroke-width:6.02px;"/></svg>